# xmcd
#
# Track frame offsets:
#	150
#	3067
#	20768
#	37617
#	66452
#	92713
#	95179
#	105886
#	130120
#	140111
#	144512
#	145935
#	149441
#	169653
#	186610
#	201682
#	203059
#	221792
#	242462
#	244899
#	263760
#	283081
#
# Disc length: 3871 seconds
#
# Revision: 1
# Processed by: cddbd v1.5.2PL0 Copyright (c) Steve Scherf et al.
# Submitted via: audiograbber 1.83.01
#
DISCID=570f1d16
DTITLE=Kelly McKain - Ponyhof Liliengrün (2) - Paula und Prinz
DYEAR=2009
DGENRE=Hörbuch
TTITLE0=Musik: Lillygreen
TTITLE1=Auf dem Ponyhof!
TTITLE2=Nur nichts verraten
TTITLE3=Große Aufregung
TTITLE4=Der Reitunterricht
TTITLE5=Der Reitunterricht
TTITLE6=Verrat!
TTITLE7=Verrat!
TTITLE8=Galopp?
TTITLE9=Galopp?
TTITLE10=Galopp?
TTITLE11=Ausflug in den Wilden Westen
TTITLE12=Ausflug in den Wilden Westen
TTITLE13=Ausflug in den Wilden Westen
TTITLE14=Streiterei
TTITLE15=Streiterei
TTITLE16=Tiefer Fall
TTITLE17=Tiefer Fall
TTITLE18=Tiefer Fall
TTITLE19=Die Reiterspiele
TTITLE20=Die Reiterspiele
TTITLE21=Musik: Lillygreen
EXTD=
EXTT0=
EXTT1=
EXTT2=
EXTT3=
EXTT4=
EXTT5=
EXTT6=
EXTT7=
EXTT8=
EXTT9=
EXTT10=
EXTT11=
EXTT12=
EXTT13=
EXTT14=
EXTT15=
EXTT16=
EXTT17=
EXTT18=
EXTT19=
EXTT20=
EXTT21=
PLAYORDER=
